{
  "accessors": [
    {
      "bufferView": 2,
      "componentType": 5126,
      "count": 570,
      "max": [
        0.24118486046791077,
        0.25581908226013184,
        0.24188607931137085
      ],
      "min": [
        -0.24129843711853027,
        3.4127384424209595e-05,
        0.024955350905656815
      ],
      "type": "VEC3"
    },
    {
      "bufferView": 2,
      "byteOffset": 6840,
      "componentType": 5126,
      "count": 570,
      "max": [
        1.0,
        0.9999997615814209,
        1.0
      ],
      "min": [
        -1.0,
        -1.0,
        -1.0
      ],
      "type": "VEC3"
    },
    {
      "bufferView": 1,
      "componentType": 5126,
      "count": 570,
      "max": [
        0.981221079826355,
        0.5151955485343933
      ],
      "min": [
        -0.7503190040588379,
        0.026589635759592056
      ],
      "type": "VEC2"
    },
    {
      "bufferView": 1,
      "byteOffset": 4560,
      "componentType": 5126,
      "count": 570,
      "max": [
        0.981221079826355,
        0.5151955485343933
      ],
      "min": [
        -0.7503190040588379,
        0.026589635759592056
      ],
      "type": "VEC2"
    },
    {
      "bufferView": 1,
      "byteOffset": 9120,
      "componentType": 5126,
      "count": 570,
      "max": [
        0.981221079826355,
        0.5151955485343933
      ],
      "min": [
        -0.7503190040588379,
        0.026589635759592056
      ],
      "type": "VEC2"
    },
    {
      "bufferView": 1,
      "byteOffset": 13680,
      "componentType": 5126,
      "count": 570,
      "max": [
        0.981221079826355,
        0.5151955485343933
      ],
      "min": [
        -0.7503190040588379,
        0.026589635759592056
      ],
      "type": "VEC2"
    },
    {
      "bufferView": 1,
      "byteOffset": 18240,
      "componentType": 5126,
      "count": 570,
      "max": [
        0.981221079826355,
        0.5151955485343933
      ],
      "min": [
        -0.7503190040588379,
        0.026589635759592056
      ],
      "type": "VEC2"
    },
    {
      "bufferView": 1,
      "byteOffset": 22800,
      "componentType": 5126,
      "count": 570,
      "max": [
        0.981221079826355,
        0.5151955485343933
      ],
      "min": [
        -0.7503190040588379,
        0.026589635759592056
      ],
      "type": "VEC2"
    },
    {
      "bufferView": 1,
      "byteOffset": 27360,
      "componentType": 5126,
      "count": 570,
      "max": [
        0.981221079826355,
        0.5151955485343933
      ],
      "min": [
        -0.7503190040588379,
        0.026589635759592056
      ],
      "type": "VEC2"
    },
    {
      "bufferView": 1,
      "byteOffset": 31920,
      "componentType": 5126,
      "count": 570,
      "max": [
        0.981221079826355,
        0.5151955485343933
      ],
      "min": [
        -0.7503190040588379,
        0.026589635759592056
      ],
      "type": "VEC2"
    },
    {
      "bufferView": 1,
      "byteOffset": 36480,
      "componentType": 5126,
      "count": 570,
      "max": [
        0.981221079826355,
        0.5151955485343933
      ],
      "min": [
        -0.7503190040588379,
        0.026589635759592056
      ],
      "type": "VEC2"
    },
    {
      "bufferView": 1,
      "byteOffset": 41040,
      "componentType": 5126,
      "count": 570,
      "max": [
        0.981221079826355,
        0.5151955485343933
      ],
      "min": [
        -0.7503190040588379,
        0.026589635759592056
      ],
      "type": "VEC2"
    },
    {
      "bufferView": 0,
      "componentType": 5125,
      "count": 2004,
      "type": "SCALAR"
    },
    {
      "bufferView": 2,
      "byteOffset": 13680,
      "componentType": 5126,
      "count": 20,
      "max": [
        0.22187456488609314,
        0.24625322222709656,
        0.07356777787208557
      ],
      "min": [
        0.13986320793628693,
        0.18317586183547974,
        0.0693369060754776
      ],
      "type": "VEC3"
    },
    {
      "bufferView": 2,
      "byteOffset": 13920,
      "componentType": 5126,
      "count": 20,
      "max": [
        0.8853150010108948,
        0.9260953068733215,
        0.9999837875366211
      ],
      "min": [
        -0.8841338753700256,
        -0.926703691482544,
        0.37579309940338135
      ],
      "type": "VEC3"
    },
    {
      "bufferView": 1,
      "byteOffset": 45600,
      "componentType": 5126,
      "count": 20,
      "max": [
        0.4957125782966614,
        0.5130754709243774
      ],
      "min": [
        0.4465695023536682,
        0.47424376010894775
      ],
      "type": "VEC2"
    },
    {
      "bufferView": 1,
      "byteOffset": 45760,
      "componentType": 5126,
      "count": 20,
      "max": [
        0.4957125782966614,
        0.5130754709243774
      ],
      "min": [
        0.4465695023536682,
        0.47424376010894775
      ],
      "type": "VEC2"
    },
    {
      "bufferView": 1,
      "byteOffset": 45920,
      "componentType": 5126,
      "count": 20,
      "max": [
        0.4957125782966614,
        0.5130754709243774
      ],
      "min": [
        0.4465695023536682,
        0.47424376010894775
      ],
      "type": "VEC2"
    },
    {
      "bufferView": 1,
      "byteOffset": 46080,
      "componentType": 5126,
      "count": 20,
      "max": [
        0.4957125782966614,
        0.5130754709243774
      ],
      "min": [
        0.4465695023536682,
        0.47424376010894775
      ],
      "type": "VEC2"
    },
    {
      "bufferView": 1,
      "byteOffset": 46240,
      "componentType": 5126,
      "count": 20,
      "max": [
        0.4957125782966614,
        0.5130754709243774
      ],
      "min": [
        0.4465695023536682,
        0.47424376010894775
      ],
      "type": "VEC2"
    },
    {
      "bufferView": 1,
      "byteOffset": 46400,
      "componentType": 5126,
      "count": 20,
      "max": [
        0.4957125782966614,
        0.5130754709243774
      ],
      "min": [
        0.4465695023536682,
        0.47424376010894775
      ],
      "type": "VEC2"
    },
    {
      "bufferView": 1,
      "byteOffset": 46560,
      "componentType": 5126,
      "count": 20,
      "max": [
        0.4957125782966614,
        0.5130754709243774
      ],
      "min": [
        0.4465695023536682,
        0.47424376010894775
      ],
      "type": "VEC2"
    },
    {
      "bufferView": 1,
      "byteOffset": 46720,
      "componentType": 5126,
      "count": 20,
      "max": [
        0.4957125782966614,
        0.5130754709243774
      ],
      "min": [
        0.4465695023536682,
        0.47424376010894775
      ],
      "type": "VEC2"
    },
    {
      "bufferView": 1,
      "byteOffset": 46880,
      "componentType": 5126,
      "count": 20,
      "max": [
        0.4957125782966614,
        0.5130754709243774
      ],
      "min": [
        0.4465695023536682,
        0.47424376010894775
      ],
      "type": "VEC2"
    },
    {
      "bufferView": 1,
      "byteOffset": 47040,
      "componentType": 5126,
      "count": 20,
      "max": [
        0.4957125782966614,
        0.5130754709243774
      ],
      "min": [
        0.4465695023536682,
        0.47424376010894775
      ],
      "type": "VEC2"
    },
    {
      "bufferView": 0,
      "byteOffset": 8016,
      "componentType": 5125,
      "count": 30,
      "type": "SCALAR"
    },
    {
      "bufferView": 2,
      "byteOffset": 14160,
      "componentType": 5126,
      "count": 233,
      "max": [
        0.24111202359199524,
        0.25507575273513794,
        0.09355100989341736
      ],
      "min": [
        -0.24111202359199524,
        -0.10145038366317749,
        -0.3573160767555237
      ],
      "type": "VEC3"
    },
    {
      "bufferView": 2,
      "byteOffset": 16956,
      "componentType": 5126,
      "count": 233,
      "max": [
        0.9999999403953552,
        1.0,
        0.9995359182357788
      ],
      "min": [
        -0.9999999403953552,
        -0.9999241232872009,
        -1.0
      ],
      "type": "VEC3"
    },
    {
      "bufferView": 1,
      "byteOffset": 47200,
      "componentType": 5126,
      "count": 233,
      "max": [
        0.6076491475105286,
        0.7612676620483398
      ],
      "min": [
        0.006173968315124512,
        0.019542813301086426
      ],
      "type": "VEC2"
    },
    {
      "bufferView": 1,
      "byteOffset": 49064,
      "componentType": 5126,
      "count": 233,
      "max": [
        0.6076491475105286,
        0.7612676620483398
      ],
      "min": [
        0.006173968315124512,
        0.019542813301086426
      ],
      "type": "VEC2"
    },
    {
      "bufferView": 1,
      "byteOffset": 50928,
      "componentType": 5126,
      "count": 233,
      "max": [
        0.6076491475105286,
        0.7612676620483398
      ],
      "min": [
        0.006173968315124512,
        0.019542813301086426
      ],
      "type": "VEC2"
    },
    {
      "bufferView": 1,
      "byteOffset": 52792,
      "componentType": 5126,
      "count": 233,
      "max": [
        0.6076491475105286,
        0.7612676620483398
      ],
      "min": [
        0.006173968315124512,
        0.019542813301086426
      ],
      "type": "VEC2"
    },
    {
      "bufferView": 1,
      "byteOffset": 54656,
      "componentType": 5126,
      "count": 233,
      "max": [
        0.6076491475105286,
        0.7612676620483398
      ],
      "min": [
        0.006173968315124512,
        0.019542813301086426
      ],
      "type": "VEC2"
    },
    {
      "bufferView": 1,
      "byteOffset": 56520,
      "componentType": 5126,
      "count": 233,
      "max": [
        0.6076491475105286,
        0.7612676620483398
      ],
      "min": [
        0.006173968315124512,
        0.019542813301086426
      ],
      "type": "VEC2"
    },
    {
      "bufferView": 1,
      "byteOffset": 58384,
      "componentType": 5126,
      "count": 233,
      "max": [
        0.6076491475105286,
        0.7612676620483398
      ],
      "min": [
        0.006173968315124512,
        0.019542813301086426
      ],
      "type": "VEC2"
    },
    {
      "bufferView": 1,
      "byteOffset": 60248,
      "componentType": 5126,
      "count": 233,
      "max": [
        0.6076491475105286,
        0.7612676620483398
      ],
      "min": [
        0.006173968315124512,
        0.019542813301086426
      ],
      "type": "VEC2"
    },
    {
      "bufferView": 1,
      "byteOffset": 62112,
      "componentType": 5126,
      "count": 233,
      "max": [
        0.6076491475105286,
        0.7612676620483398
      ],
      "min": [
        0.006173968315124512,
        0.019542813301086426
      ],
      "type": "VEC2"
    },
    {
      "bufferView": 1,
      "byteOffset": 63976,
      "componentType": 5126,
      "count": 233,
      "max": [
        0.6076491475105286,
        0.7612676620483398
      ],
      "min": [
        0.006173968315124512,
        0.019542813301086426
      ],
      "type": "VEC2"
    },
    {
      "bufferView": 0,
      "byteOffset": 8136,
      "componentType": 5125,
      "count": 888,
      "type": "SCALAR"
    },
    {
      "bufferView": 2,
      "byteOffset": 19752,
      "componentType": 5126,
      "count": 250,
      "max": [
        0.2409076690673828,
        0.0022082626819610596,
        0.24210351705551147
      ],
      "min": [
        -0.2409076690673828,
        -0.09912240505218506,
        0.08743562549352646
      ],
      "type": "VEC3"
    },
    {
      "bufferView": 2,
      "byteOffset": 22752,
      "componentType": 5126,
      "count": 250,
      "max": [
        1.0,
        1.0,
        1.0
      ],
      "min": [
        -1.0,
        -0.9999980330467224,
        -1.0
      ],
      "type": "VEC3"
    },
    {
      "bufferView": 1,
      "byteOffset": 65840,
      "componentType": 5126,
      "count": 250,
      "max": [
        0.8546144962310791,
        0.8174219131469727
      ],
      "min": [
        0.6506661176681519,
        0.40916192531585693
      ],
      "type": "VEC2"
    },
    {
      "bufferView": 1,
      "byteOffset": 67840,
      "componentType": 5126,
      "count": 250,
      "max": [
        0.8546144962310791,
        0.8174219131469727
      ],
      "min": [
        0.6506661176681519,
        0.40916192531585693
      ],
      "type": "VEC2"
    },
    {
      "bufferView": 1,
      "byteOffset": 69840,
      "componentType": 5126,
      "count": 250,
      "max": [
        0.8546144962310791,
        0.8174219131469727
      ],
      "min": [
        0.6506661176681519,
        0.40916192531585693
      ],
      "type": "VEC2"
    },
    {
      "bufferView": 1,
      "byteOffset": 71840,
      "componentType": 5126,
      "count": 250,
      "max": [
        0.8546144962310791,
        0.8174219131469727
      ],
      "min": [
        0.6506661176681519,
        0.40916192531585693
      ],
      "type": "VEC2"
    },
    {
      "bufferView": 1,
      "byteOffset": 73840,
      "componentType": 5126,
      "count": 250,
      "max": [
        0.8546144962310791,
        0.8174219131469727
      ],
      "min": [
        0.6506661176681519,
        0.40916192531585693
      ],
      "type": "VEC2"
    },
    {
      "bufferView": 1,
      "byteOffset": 75840,
      "componentType": 5126,
      "count": 250,
      "max": [
        0.8546144962310791,
        0.8174219131469727
      ],
      "min": [
        0.6506661176681519,
        0.40916192531585693
      ],
      "type": "VEC2"
    },
    {
      "bufferView": 1,
      "byteOffset": 77840,
      "componentType": 5126,
      "count": 250,
      "max": [
        0.8546144962310791,
        0.8174219131469727
      ],
      "min": [
        0.6506661176681519,
        0.40916192531585693
      ],
      "type": "VEC2"
    },
    {
      "bufferView": 1,
      "byteOffset": 79840,
      "componentType": 5126,
      "count": 250,
      "max": [
        0.8546144962310791,
        0.8174219131469727
      ],
      "min": [
        0.6506661176681519,
        0.40916192531585693
      ],
      "type": "VEC2"
    },
    {
      "bufferView": 1,
      "byteOffset": 81840,
      "componentType": 5126,
      "count": 250,
      "max": [
        0.8546144962310791,
        0.8174219131469727
      ],
      "min": [
        0.6506661176681519,
        0.40916192531585693
      ],
      "type": "VEC2"
    },
    {
      "bufferView": 1,
      "byteOffset": 83840,
      "componentType": 5126,
      "count": 250,
      "max": [
        0.8546144962310791,
        0.8174219131469727
      ],
      "min": [
        0.6506661176681519,
        0.40916192531585693
      ],
      "type": "VEC2"
    },
    {
      "bufferView": 0,
      "byteOffset": 11688,
      "componentType": 5125,
      "count": 990,
      "type": "SCALAR"
    },
    {
      "bufferView": 2,
      "byteOffset": 25752,
      "componentType": 5126,
      "count": 308,
      "max": [
        0.2544538378715515,
        0.21053679287433624,
        -0.016156112775206566
      ],
      "min": [
        -0.2388751357793808,
        -0.04092784970998764,
        -0.3065462112426758
      ],
      "type": "VEC3"
    },
    {
      "bufferView": 2,
      "byteOffset": 29448,
      "componentType": 5126,
      "count": 308,
      "max": [
        0.9999877214431763,
        1.0,
        0.8055474758148193
      ],
      "min": [
        -1.0,
        -0.999458909034729,
        -1.0
      ],
      "type": "VEC3"
    },
    {
      "bufferView": 1,
      "byteOffset": 85840,
      "componentType": 5126,
      "count": 308,
      "max": [
        0.9850919842720032,
        0.995490312576294
      ],
      "min": [
        0.0032973065972328186,
        0.3070908784866333
      ],
      "type": "VEC2"
    },
    {
      "bufferView": 1,
      "byteOffset": 88304,
      "componentType": 5126,
      "count": 308,
      "max": [
        0.9850919842720032,
        0.995490312576294
      ],
      "min": [
        0.0032973065972328186,
        0.3070908784866333
      ],
      "type": "VEC2"
    },
    {
      "bufferView": 1,
      "byteOffset": 90768,
      "componentType": 5126,
      "count": 308,
      "max": [
        0.9850919842720032,
        0.995490312576294
      ],
      "min": [
        0.0032973065972328186,
        0.3070908784866333
      ],
      "type": "VEC2"
    },
    {
      "bufferView": 1,
      "byteOffset": 93232,
      "componentType": 5126,
      "count": 308,
      "max": [
        0.9850919842720032,
        0.995490312576294
      ],
      "min": [
        0.0032973065972328186,
        0.3070908784866333
      ],
      "type": "VEC2"
    },
    {
      "bufferView": 1,
      "byteOffset": 95696,
      "componentType": 5126,
      "count": 308,
      "max": [
        0.9850919842720032,
        0.995490312576294
      ],
      "min": [
        0.0032973065972328186,
        0.3070908784866333
      ],
      "type": "VEC2"
    },
    {
      "bufferView": 1,
      "byteOffset": 98160,
      "componentType": 5126,
      "count": 308,
      "max": [
        0.9850919842720032,
        0.995490312576294
      ],
      "min": [
        0.0032973065972328186,
        0.3070908784866333
      ],
      "type": "VEC2"
    },
    {
      "bufferView": 1,
      "byteOffset": 100624,
      "componentType": 5126,
      "count": 308,
      "max": [
        0.9850919842720032,
        0.995490312576294
      ],
      "min": [
        0.0032973065972328186,
        0.3070908784866333
      ],
      "type": "VEC2"
    },
    {
      "bufferView": 1,
      "byteOffset": 103088,
      "componentType": 5126,
      "count": 308,
      "max": [
        0.9850919842720032,
        0.995490312576294
      ],
      "min": [
        0.0032973065972328186,
        0.3070908784866333
      ],
      "type": "VEC2"
    },
    {
      "bufferView": 1,
      "byteOffset": 105552,
      "componentType": 5126,
      "count": 308,
      "max": [
        0.9850919842720032,
        0.995490312576294
      ],
      "min": [
        0.0032973065972328186,
        0.3070908784866333
      ],
      "type": "VEC2"
    },
    {
      "bufferView": 1,
      "byteOffset": 108016,
      "componentType": 5126,
      "count": 308,
      "max": [
        0.9850919842720032,
        0.995490312576294
      ],
      "min": [
        0.0032973065972328186,
        0.3070908784866333
      ],
      "type": "VEC2"
    },
    {
      "bufferView": 0,
      "byteOffset": 15648,
      "componentType": 5125,
      "count": 1176,
      "type": "SCALAR"
    },
    {
      "bufferView": 2,
      "byteOffset": 33144,
      "componentType": 5126,
      "count": 4,
      "max": [
        0.20045340061187744,
        0.17144733667373657,
        -0.28575557470321655
      ],
      "min": [
        0.1581873893737793,
        0.14309607446193695,
        -0.28575557470321655
      ],
      "type": "VEC3"
    },
    {
      "bufferView": 2,
      "byteOffset": 33192,
      "componentType": 5126,
      "count": 4,
      "max": [
        0.0,
        0.0,
        -1.0
      ],
      "min": [
        0.0,
        0.0,
        -1.0
      ],
      "type": "VEC3"
    },
    {
      "bufferView": 1,
      "byteOffset": 110480,
      "componentType": 5126,
      "count": 4,
      "max": [
        0.0782918930053711,
        0.5552862882614136
      ],
      "min": [
        0.050789833068847656,
        0.536838173866272
      ],
      "type": "VEC2"
    },
    {
      "bufferView": 1,
      "byteOffset": 110512,
      "componentType": 5126,
      "count": 4,
      "max": [
        0.0782918930053711,
        0.5552862882614136
      ],
      "min": [
        0.050789833068847656,
        0.536838173866272
      ],
      "type": "VEC2"
    },
    {
      "bufferView": 1,
      "byteOffset": 110544,
      "componentType": 5126,
      "count": 4,
      "max": [
        0.0782918930053711,
        0.5552862882614136
      ],
      "min": [
        0.050789833068847656,
        0.536838173866272
      ],
      "type": "VEC2"
    },
    {
      "bufferView": 1,
      "byteOffset": 110576,
      "componentType": 5126,
      "count": 4,
      "max": [
        0.0782918930053711,
        0.5552862882614136
      ],
      "min": [
        0.050789833068847656,
        0.536838173866272
      ],
      "type": "VEC2"
    },
    {
      "bufferView": 1,
      "byteOffset": 110608,
      "componentType": 5126,
      "count": 4,
      "max": [
        0.0782918930053711,
        0.5552862882614136
      ],
      "min": [
        0.050789833068847656,
        0.536838173866272
      ],
      "type": "VEC2"
    },
    {
      "bufferView": 1,
      "byteOffset": 110640,
      "componentType": 5126,
      "count": 4,
      "max": [
        0.0782918930053711,
        0.5552862882614136
      ],
      "min": [
        0.050789833068847656,
        0.536838173866272
      ],
      "type": "VEC2"
    },
    {
      "bufferView": 1,
      "byteOffset": 110672,
      "componentType": 5126,
      "count": 4,
      "max": [
        0.0782918930053711,
        0.5552862882614136
      ],
      "min": [
        0.050789833068847656,
        0.536838173866272
      ],
      "type": "VEC2"
    },
    {
      "bufferView": 1,
      "byteOffset": 110704,
      "componentType": 5126,
      "count": 4,
      "max": [
        0.0782918930053711,
        0.5552862882614136
      ],
      "min": [
        0.050789833068847656,
        0.536838173866272
      ],
      "type": "VEC2"
    },
    {
      "bufferView": 1,
      "byteOffset": 110736,
      "componentType": 5126,
      "count": 4,
      "max": [
        0.0782918930053711,
        0.5552862882614136
      ],
      "min": [
        0.050789833068847656,
        0.536838173866272
      ],
      "type": "VEC2"
    },
    {
      "bufferView": 1,
      "byteOffset": 110768,
      "componentType": 5126,
      "count": 4,
      "max": [
        0.0782918930053711,
        0.5552862882614136
      ],
      "min": [
        0.050789833068847656,
        0.536838173866272
      ],
      "type": "VEC2"
    },
    {
      "bufferView": 0,
      "byteOffset": 20352,
      "componentType": 5125,
      "count": 6,
      "type": "SCALAR"
    },
    {
      "bufferView": 2,
      "byteOffset": 33240,
      "componentType": 5126,
      "count": 480,
      "max": [
        0.9999998807907104,
        0.11585378646850586,
        1.0000004768371582
      ],
      "min": [
        -1.000000238418579,
        -0.5000001192092896,
        -1.0000001192092896
      ],
      "type": "VEC3"
    },
    {
      "bufferView": 2,
      "byteOffset": 39000,
      "componentType": 5126,
      "count": 480,
      "max": [
        1.0,
        0.753930389881134,
        1.0
      ],
      "min": [
        -1.0,
        0.0,
        -1.0
      ],
      "type": "VEC3"
    },
    {
      "bufferView": 1,
      "byteOffset": 110800,
      "componentType": 5126,
      "count": 480,
      "max": [
        0.968994140625,
        0.9902554750442505
      ],
      "min": [
        0.4985627233982086,
        0.024691157042980194
      ],
      "type": "VEC2"
    },
    {
      "bufferView": 1,
      "byteOffset": 114640,
      "componentType": 5126,
      "count": 480,
      "max": [
        0.968994140625,
        0.9902554750442505
      ],
      "min": [
        0.4985627233982086,
        0.024691157042980194
      ],
      "type": "VEC2"
    },
    {
      "bufferView": 1,
      "byteOffset": 118480,
      "componentType": 5126,
      "count": 480,
      "max": [
        0.968994140625,
        0.9902554750442505
      ],
      "min": [
        0.4985627233982086,
        0.024691157042980194
      ],
      "type": "VEC2"
    },
    {
      "bufferView": 1,
      "byteOffset": 122320,
      "componentType": 5126,
      "count": 480,
      "max": [
        0.968994140625,
        0.9902554750442505
      ],
      "min": [
        0.4985627233982086,
        0.024691157042980194
      ],
      "type": "VEC2"
    },
    {
      "bufferView": 1,
      "byteOffset": 126160,
      "componentType": 5126,
      "count": 480,
      "max": [
        0.968994140625,
        0.9902554750442505
      ],
      "min": [
        0.4985627233982086,
        0.024691157042980194
      ],
      "type": "VEC2"
    },
    {
      "bufferView": 1,
      "byteOffset": 130000,
      "componentType": 5126,
      "count": 480,
      "max": [
        0.968994140625,
        0.9902554750442505
      ],
      "min": [
        0.4985627233982086,
        0.024691157042980194
      ],
      "type": "VEC2"
    },
    {
      "bufferView": 1,
      "byteOffset": 133840,
      "componentType": 5126,
      "count": 480,
      "max": [
        0.968994140625,
        0.9902554750442505
      ],
      "min": [
        0.4985627233982086,
        0.024691157042980194
      ],
      "type": "VEC2"
    },
    {
      "bufferView": 1,
      "byteOffset": 137680,
      "componentType": 5126,
      "count": 480,
      "max": [
        0.968994140625,
        0.9902554750442505
      ],
      "min": [
        0.4985627233982086,
        0.024691157042980194
      ],
      "type": "VEC2"
    },
    {
      "bufferView": 1,
      "byteOffset": 141520,
      "componentType": 5126,
      "count": 480,
      "max": [
        0.968994140625,
        0.9902554750442505
      ],
      "min": [
        0.4985627233982086,
        0.024691157042980194
      ],
      "type": "VEC2"
    },
    {
      "bufferView": 1,
      "byteOffset": 145360,
      "componentType": 5126,
      "count": 480,
      "max": [
        0.968994140625,
        0.9902554750442505
      ],
      "min": [
        0.4985627233982086,
        0.024691157042980194
      ],
      "type": "VEC2"
    },
    {
      "bufferView": 0,
      "byteOffset": 20376,
      "componentType": 5125,
      "count": 1440,
      "type": "SCALAR"
    },
    {
      "bufferView": 2,
      "byteOffset": 44760,
      "componentType": 5126,
      "count": 161,
      "max": [
        0.9510565400123596,
        1.000000238418579,
        0.9510564804077148
      ],
      "min": [
        -0.951056718826294,
        0.30901700258255005,
        -0.9510570764541626
      ],
      "type": "VEC3"
    },
    {
      "bufferView": 2,
      "byteOffset": 46692,
      "componentType": 5126,
      "count": 161,
      "max": [
        0.9238795042037964,
        1.0,
        0.9238796234130859
      ],
      "min": [
        -0.9238795042037964,
        0.3826828896999359,
        -0.9238795638084412
      ],
      "type": "VEC3"
    },
    {
      "bufferView": 1,
      "byteOffset": 149200,
      "componentType": 5126,
      "count": 161,
      "max": [
        0.5977392196655273,
        0.6765239834785461
      ],
      "min": [
        0.46718159317970276,
        0.545966386795044
      ],
      "type": "VEC2"
    },
    {
      "bufferView": 1,
      "byteOffset": 150488,
      "componentType": 5126,
      "count": 161,
      "max": [
        0.5977392196655273,
        0.6765239834785461
      ],
      "min": [
        0.46718159317970276,
        0.545966386795044
      ],
      "type": "VEC2"
    },
    {
      "bufferView": 1,
      "byteOffset": 151776,
      "componentType": 5126,
      "count": 161,
      "max": [
        0.5977392196655273,
        0.6765239834785461
      ],
      "min": [
        0.46718159317970276,
        0.545966386795044
      ],
      "type": "VEC2"
    },
    {
      "bufferView": 1,
      "byteOffset": 153064,
      "componentType": 5126,
      "count": 161,
      "max": [
        0.5977392196655273,
        0.6765239834785461
      ],
      "min": [
        0.46718159317970276,
        0.545966386795044
      ],
      "type": "VEC2"
    },
    {
      "bufferView": 1,
      "byteOffset": 154352,
      "componentType": 5126,
      "count": 161,
      "max": [
        0.5977392196655273,
        0.6765239834785461
      ],
      "min": [
        0.46718159317970276,
        0.545966386795044
      ],
      "type": "VEC2"
    },
    {
      "bufferView": 1,
      "byteOffset": 155640,
      "componentType": 5126,
      "count": 161,
      "max": [
        0.5977392196655273,
        0.6765239834785461
      ],
      "min": [
        0.46718159317970276,
        0.545966386795044
      ],
      "type": "VEC2"
    },
    {
      "bufferView": 1,
      "byteOffset": 156928,
      "componentType": 5126,
      "count": 161,
      "max": [
        0.5977392196655273,
        0.6765239834785461
      ],
      "min": [
        0.46718159317970276,
        0.545966386795044
      ],
      "type": "VEC2"
    },
    {
      "bufferView": 1,
      "byteOffset": 158216,
      "componentType": 5126,
      "count": 161,
      "max": [
        0.5977392196655273,
        0.6765239834785461
      ],
      "min": [
        0.46718159317970276,
        0.545966386795044
      ],
      "type": "VEC2"
    },
    {
      "bufferView": 1,
      "byteOffset": 159504,
      "componentType": 5126,
      "count": 161,
      "max": [
        0.5977392196655273,
        0.6765239834785461
      ],
      "min": [
        0.46718159317970276,
        0.545966386795044
      ],
      "type": "VEC2"
    },
    {
      "bufferView": 1,
      "byteOffset": 160792,
      "componentType": 5126,
      "count": 161,
      "max": [
        0.5977392196655273,
        0.6765239834785461
      ],
      "min": [
        0.46718159317970276,
        0.545966386795044
      ],
      "type": "VEC2"
    },
    {
      "bufferView": 0,
      "byteOffset": 26136,
      "componentType": 5125,
      "count": 900,
      "type": "SCALAR"
    },
    {
      "bufferView": 2,
      "byteOffset": 48624,
      "componentType": 5126,
      "count": 135,
      "max": [
        0.9999997615814209,
        1.0452795028686523,
        1.0
      ],
      "min": [
        -1.0,
        0.736163854598999,
        -1.0000001192092896
      ],
      "type": "VEC3"
    },
    {
      "bufferView": 2,
      "byteOffset": 50244,
      "componentType": 5126,
      "count": 135,
      "max": [
        1.0,
        1.0,
        1.0
      ],
      "min": [
        -1.0,
        0.0,
        -1.0
      ],
      "type": "VEC3"
    },
    {
      "bufferView": 1,
      "byteOffset": 162080,
      "componentType": 5126,
      "count": 135,
      "max": [
        0.9710018634796143,
        0.47633886337280273
      ],
      "min": [
        0.5097872614860535,
        0.16238978505134583
      ],
      "type": "VEC2"
    },
    {
      "bufferView": 1,
      "byteOffset": 163160,
      "componentType": 5126,
      "count": 135,
      "max": [
        0.9710018634796143,
        0.47633886337280273
      ],
      "min": [
        0.5097872614860535,
        0.16238978505134583
      ],
      "type": "VEC2"
    },
    {
      "bufferView": 1,
      "byteOffset": 164240,
      "componentType": 5126,
      "count": 135,
      "max": [
        0.9710018634796143,
        0.47633886337280273
      ],
      "min": [
        0.5097872614860535,
        0.16238978505134583
      ],
      "type": "VEC2"
    },
    {
      "bufferView": 1,
      "byteOffset": 165320,
      "componentType": 5126,
      "count": 135,
      "max": [
        0.9710018634796143,
        0.47633886337280273
      ],
      "min": [
        0.5097872614860535,
        0.16238978505134583
      ],
      "type": "VEC2"
    },
    {
      "bufferView": 1,
      "byteOffset": 166400,
      "componentType": 5126,
      "count": 135,
      "max": [
        0.9710018634796143,
        0.47633886337280273
      ],
      "min": [
        0.5097872614860535,
        0.16238978505134583
      ],
      "type": "VEC2"
    },
    {
      "bufferView": 1,
      "byteOffset": 167480,
      "componentType": 5126,
      "count": 135,
      "max": [
        0.9710018634796143,
        0.47633886337280273
      ],
      "min": [
        0.5097872614860535,
        0.16238978505134583
      ],
      "type": "VEC2"
    },
    {
      "bufferView": 1,
      "byteOffset": 168560,
      "componentType": 5126,
      "count": 135,
      "max": [
        0.9710018634796143,
        0.47633886337280273
      ],
      "min": [
        0.5097872614860535,
        0.16238978505134583
      ],
      "type": "VEC2"
    },
    {
      "bufferView": 1,
      "byteOffset": 169640,
      "componentType": 5126,
      "count": 135,
      "max": [
        0.9710018634796143,
        0.47633886337280273
      ],
      "min": [
        0.5097872614860535,
        0.16238978505134583
      ],
      "type": "VEC2"
    },
    {
      "bufferView": 1,
      "byteOffset": 170720,
      "componentType": 5126,
      "count": 135,
      "max": [
        0.9710018634796143,
        0.47633886337280273
      ],
      "min": [
        0.5097872614860535,
        0.16238978505134583
      ],
      "type": "VEC2"
    },
    {
      "bufferView": 1,
      "byteOffset": 171800,
      "componentType": 5126,
      "count": 135,
      "max": [
        0.9710018634796143,
        0.47633886337280273
      ],
      "min": [
        0.5097872614860535,
        0.16238978505134583
      ],
      "type": "VEC2"
    },
    {
      "bufferView": 0,
      "byteOffset": 29736,
      "componentType": 5125,
      "count": 324,
      "type": "SCALAR"
    },
    {
      "bufferView": 2,
      "byteOffset": 51864,
      "componentType": 5126,
      "count": 76,
      "max": [
        1.0,
        0.9999997615814209,
        1.0
      ],
      "min": [
        -0.9999997615814209,
        -1.0,
        -1.0000001192092896
      ],
      "type": "VEC3"
    },
    {
      "bufferView": 2,
      "byteOffset": 52776,
      "componentType": 5126,
      "count": 76,
      "max": [
        1.0,
        0.8300328850746155,
        1.0
      ],
      "min": [
        -1.0,
        0.0,
        -1.0
      ],
      "type": "VEC3"
    },
    {
      "bufferView": 1,
      "byteOffset": 172880,
      "componentType": 5126,
      "count": 76,
      "max": [
        0.607062816619873,
        0.39733272790908813
      ],
      "min": [
        0.4447101950645447,
        0.11520279943943024
      ],
      "type": "VEC2"
    },
    {
      "bufferView": 1,
      "byteOffset": 173488,
      "componentType": 5126,
      "count": 76,
      "max": [
        0.607062816619873,
        0.39733272790908813
      ],
      "min": [
        0.4447101950645447,
        0.11520279943943024
      ],
      "type": "VEC2"
    },
    {
      "bufferView": 1,
      "byteOffset": 174096,
      "componentType": 5126,
      "count": 76,
      "max": [
        0.607062816619873,
        0.39733272790908813
      ],
      "min": [
        0.4447101950645447,
        0.11520279943943024
      ],
      "type": "VEC2"
    },
    {
      "bufferView": 1,
      "byteOffset": 174704,
      "componentType": 5126,
      "count": 76,
      "max": [
        0.607062816619873,
        0.39733272790908813
      ],
      "min": [
        0.4447101950645447,
        0.11520279943943024
      ],
      "type": "VEC2"
    },
    {
      "bufferView": 1,
      "byteOffset": 175312,
      "componentType": 5126,
      "count": 76,
      "max": [
        0.607062816619873,
        0.39733272790908813
      ],
      "min": [
        0.4447101950645447,
        0.11520279943943024
      ],
      "type": "VEC2"
    },
    {
      "bufferView": 1,
      "byteOffset": 175920,
      "componentType": 5126,
      "count": 76,
      "max": [
        0.607062816619873,
        0.39733272790908813
      ],
      "min": [
        0.4447101950645447,
        0.11520279943943024
      ],
      "type": "VEC2"
    },
    {
      "bufferView": 1,
      "byteOffset": 176528,
      "componentType": 5126,
      "count": 76,
      "max": [
        0.607062816619873,
        0.39733272790908813
      ],
      "min": [
        0.4447101950645447,
        0.11520279943943024
      ],
      "type": "VEC2"
    },
    {
      "bufferView": 1,
      "byteOffset": 177136,
      "componentType": 5126,
      "count": 76,
      "max": [
        0.607062816619873,
        0.39733272790908813
      ],
      "min": [
        0.4447101950645447,
        0.11520279943943024
      ],
      "type": "VEC2"
    },
    {
      "bufferView": 1,
      "byteOffset": 177744,
      "componentType": 5126,
      "count": 76,
      "max": [
        0.607062816619873,
        0.39733272790908813
      ],
      "min": [
        0.4447101950645447,
        0.11520279943943024
      ],
      "type": "VEC2"
    },
    {
      "bufferView": 1,
      "byteOffset": 178352,
      "componentType": 5126,
      "count": 76,
      "max": [
        0.607062816619873,
        0.39733272790908813
      ],
      "min": [
        0.4447101950645447,
        0.11520279943943024
      ],
      "type": "VEC2"
    },
    {
      "bufferView": 0,
      "byteOffset": 31032,
      "componentType": 5125,
      "count": 216,
      "type": "SCALAR"
    }
  ],
  "asset": {
    "extras": {
      "author": "Bruce (https://sketchfab.com/brucemevans)",
      "license": "CC-BY-4.0 (http://creativecommons.org/licenses/by/4.0/)",
      "source": "https://sketchfab.com/3d-models/low-poly-polaroid-2edd95718d694d1493c2538bc9de3b03",
      "title": "Low Poly Polaroid"
    },
    "generator": "Sketchfab-12.66.0",
    "version": "2.0"
  },
  "bufferViews": [
    {
      "buffer": 0,
      "byteLength": 31896,
      "name": "floatBufferViews",
      "target": 34963
    },
    {
      "buffer": 0,
      "byteLength": 178960,
      "byteOffset": 31896,
      "byteStride": 8,
      "name": "floatBufferViews",
      "target": 34962
    },
    {
      "buffer": 0,
      "byteLength": 53688,
      "byteOffset": 210856,
      "byteStride": 12,
      "name": "floatBufferViews",
      "target": 34962
    }
  ],
  "buffers": [
    {
      "byteLength": 264544,
      "uri": "scene.bin"
    }
  ],
  "images": [
    {
      "uri": "textures/WhitePlastic_baseColor.png"
    }
  ],
  "materials": [
    {
      "doubleSided": true,
      "name": "WhitePlastic",
      "pbrMetallicRoughness": {
        "baseColorTexture": {
          "index": 0
        },
        "metallicFactor": 0.0,
        "roughnessFactor": 0.6751143292682926
      }
    },
    {
      "doubleSided": true,
      "name": "Glass_1",
      "pbrMetallicRoughness": {
        "baseColorFactor": [
          0.69169,
          0.964823,
          0.950828,
          1.0
        ],
        "metallicFactor": 0.0,
        "roughnessFactor": 0.9013900926828812
      }
    },
    {
      "doubleSided": true,
      "name": "GlossyBlack",
      "pbrMetallicRoughness": {
        "baseColorFactor": [
          0.0192499,
          0.0192499,
          0.0192499,
          1.0
        ],
        "metallicFactor": 0.0,
        "roughnessFactor": 0.29999999999999993
      }
    },
    {
      "doubleSided": true,
      "name": "GlossyBlack_0",
      "pbrMetallicRoughness": {
        "baseColorFactor": [
          0.0192499,
          0.0192499,
          0.0192499,
          1.0
        ],
        "metallicFactor": 0.0,
        "roughnessFactor": 0.29999999999999993
      }
    },
    {
      "doubleSided": true,
      "name": "RoughBlack",
      "pbrMetallicRoughness": {
        "baseColorFactor": [
          0.0192499,
          0.0192499,
          0.0192499,
          1.0
        ],
        "metallicFactor": 0.0
      }
    },
    {
      "doubleSided": true,
      "name": "Glass",
      "pbrMetallicRoughness": {
        "baseColorFactor": [
          0.69169,
          0.964823,
          0.950828,
          1.0
        ],
        "metallicFactor": 0.0,
        "roughnessFactor": 0.9013900926828812
      }
    },
    {
      "doubleSided": true,
      "name": "GlossyBlack_1",
      "pbrMetallicRoughness": {
        "baseColorFactor": [
          0.0192499,
          0.0192499,
          0.0192499,
          1.0
        ],
        "metallicFactor": 0.0,
        "roughnessFactor": 0.29999999999999993
      }
    },
    {
      "doubleSided": true,
      "name": "Glass_0",
      "pbrMetallicRoughness": {
        "baseColorFactor": [
          0.69169,
          0.964823,
          0.950828,
          1.0
        ],
        "metallicFactor": 0.15,
        "roughnessFactor": 0.0
      }
    },
    {
      "doubleSided": true,
      "name": "RoughBlack_1",
      "pbrMetallicRoughness": {
        "baseColorFactor": [
          0.480933,
          0.033237099999999985,
          0.033237099999999985,
          1.0
        ],
        "metallicFactor": 0.0
      }
    },
    {
      "doubleSided": true,
      "name": "GlossyBlack_2",
      "pbrMetallicRoughness": {
        "baseColorFactor": [
          0.0192499,
          0.0192499,
          0.0192499,
          1.0
        ],
        "metallicFactor": 0.0,
        "roughnessFactor": 0.29999999999999993
      }
    }
  ],
  "meshes": [
    {
      "name": "WhitePlastic_WhitePlastic_0",
      "primitives": [
        {
          "attributes": {
            "NORMAL": 1,
            "POSITION": 0,
            "TEXCOORD_0": 2,
            "TEXCOORD_1": 3,
            "TEXCOORD_2": 4,
            "TEXCOORD_3": 5,
            "TEXCOORD_4": 6,
            "TEXCOORD_5": 7,
            "TEXCOORD_6": 8,
            "TEXCOORD_7": 9,
            "TEXCOORD_8": 10,
            "TEXCOORD_9": 11
          },
          "indices": 12,
          "material": 0,
          "mode": 4
        }
      ]
    },
    {
      "name": "Front Viewfinder Glass_Glass (1)_0",
      "primitives": [
        {
          "attributes": {
            "NORMAL": 14,
            "POSITION": 13,
            "TEXCOORD_0": 15,
            "TEXCOORD_1": 16,
            "TEXCOORD_2": 17,
            "TEXCOORD_3": 18,
            "TEXCOORD_4": 19,
            "TEXCOORD_5": 20,
            "TEXCOORD_6": 21,
            "TEXCOORD_7": 22,
            "TEXCOORD_8": 23,
            "TEXCOORD_9": 24
          },
          "indices": 25,
          "material": 1,
          "mode": 4
        }
      ]
    },
    {
      "name": "Middle Glossy Plastic_GlossyBlack_0",
      "primitives": [
        {
          "attributes": {
            "NORMAL": 27,
            "POSITION": 26,
            "TEXCOORD_0": 28,
            "TEXCOORD_1": 29,
            "TEXCOORD_2": 30,
            "TEXCOORD_3": 31,
            "TEXCOORD_4": 32,
            "TEXCOORD_5": 33,
            "TEXCOORD_6": 34,
            "TEXCOORD_7": 35,
            "TEXCOORD_8": 36,
            "TEXCOORD_9": 37
          },
          "indices": 38,
          "material": 2,
          "mode": 4
        }
      ]
    },
    {
      "name": "Film Hole_GlossyBlack_0",
      "primitives": [
        {
          "attributes": {
            "NORMAL": 40,
            "POSITION": 39,
            "TEXCOORD_0": 41,
            "TEXCOORD_1": 42,
            "TEXCOORD_2": 43,
            "TEXCOORD_3": 44,
            "TEXCOORD_4": 45,
            "TEXCOORD_5": 46,
            "TEXCOORD_6": 47,
            "TEXCOORD_7": 48,
            "TEXCOORD_8": 49,
            "TEXCOORD_9": 50
          },
          "indices": 51,
          "material": 3,
          "mode": 4
        }
      ]
    },
    {
      "name": "Back Rough_RoughBlack_0",
      "primitives": [
        {
          "attributes": {
            "NORMAL": 53,
            "POSITION": 52,
            "TEXCOORD_0": 54,
            "TEXCOORD_1": 55,
            "TEXCOORD_2": 56,
            "TEXCOORD_3": 57,
            "TEXCOORD_4": 58,
            "TEXCOORD_5": 59,
            "TEXCOORD_6": 60,
            "TEXCOORD_7": 61,
            "TEXCOORD_8": 62,
            "TEXCOORD_9": 63
          },
          "indices": 64,
          "material": 4,
          "mode": 4
        }
      ]
    },
    {
      "name": "EyeGlass_Glass_0",
      "primitives": [
        {
          "attributes": {
            "NORMAL": 66,
            "POSITION": 65,
            "TEXCOORD_0": 67,
            "TEXCOORD_1": 68,
            "TEXCOORD_2": 69,
            "TEXCOORD_3": 70,
            "TEXCOORD_4": 71,
            "TEXCOORD_5": 72,
            "TEXCOORD_6": 73,
            "TEXCOORD_7": 74,
            "TEXCOORD_8": 75,
            "TEXCOORD_9": 76
          },
          "indices": 77,
          "material": 5,
          "mode": 4
        }
      ]
    },
    {
      "name": "Plastic Around the Lens_GlossyBlack_0",
      "primitives": [
        {
          "attributes": {
            "NORMAL": 79,
            "POSITION": 78,
            "TEXCOORD_0": 80,
            "TEXCOORD_1": 81,
            "TEXCOORD_2": 82,
            "TEXCOORD_3": 83,
            "TEXCOORD_4": 84,
            "TEXCOORD_5": 85,
            "TEXCOORD_6": 86,
            "TEXCOORD_7": 87,
            "TEXCOORD_8": 88,
            "TEXCOORD_9": 89
          },
          "indices": 90,
          "material": 6,
          "mode": 4
        }
      ]
    },
    {
      "name": "Lens_Glass_0",
      "primitives": [
        {
          "attributes": {
            "NORMAL": 92,
            "POSITION": 91,
            "TEXCOORD_0": 93,
            "TEXCOORD_1": 94,
            "TEXCOORD_2": 95,
            "TEXCOORD_3": 96,
            "TEXCOORD_4": 97,
            "TEXCOORD_5": 98,
            "TEXCOORD_6": 99,
            "TEXCOORD_7": 100,
            "TEXCOORD_8": 101,
            "TEXCOORD_9": 102
          },
          "indices": 103,
          "material": 7,
          "mode": 4
        }
      ]
    },
    {
      "name": "Shutter Button_RoughBlack (1)_0",
      "primitives": [
        {
          "attributes": {
            "NORMAL": 105,
            "POSITION": 104,
            "TEXCOORD_0": 106,
            "TEXCOORD_1": 107,
            "TEXCOORD_2": 108,
            "TEXCOORD_3": 109,
            "TEXCOORD_4": 110,
            "TEXCOORD_5": 111,
            "TEXCOORD_6": 112,
            "TEXCOORD_7": 113,
            "TEXCOORD_8": 114,
            "TEXCOORD_9": 115
          },
          "indices": 116,
          "material": 8,
          "mode": 4
        }
      ]
    },
    {
      "name": "Exposure_GlossyBlack_0",
      "primitives": [
        {
          "attributes": {
            "NORMAL": 118,
            "POSITION": 117,
            "TEXCOORD_0": 119,
            "TEXCOORD_1": 120,
            "TEXCOORD_2": 121,
            "TEXCOORD_3": 122,
            "TEXCOORD_4": 123,
            "TEXCOORD_5": 124,
            "TEXCOORD_6": 125,
            "TEXCOORD_7": 126,
            "TEXCOORD_8": 127,
            "TEXCOORD_9": 128
          },
          "indices": 129,
          "material": 9,
          "mode": 4
        }
      ]
    }
  ],
  "nodes": [
    {
      "children": [
        1
      ],
      "matrix": [
        1.0,
        0.0,
        0.0,
        0.0,
        0.0,
        2.220446049250313e-16,
        -1.0,
        0.0,
        0.0,
        1.0,
        2.220446049250313e-16,
        0.0,
        0.0,
        0.0,
        0.0,
        1.0
      ],
      "name": "Sketchfab_model"
    },
    {
      "children": [
        2
      ],
      "matrix": [
        1.0,
        0.0,
        0.0,
        0.0,
        0.0,
        0.0,
        1.0,
        0.0,
        0.0,
        -1.0,
        0.0,
        0.0,
        0.0,
        0.0,
        0.0,
        1.0
      ],
      "name": "75e771f5fa0d400e89fa5071c9e11055.fbx"
    },
    {
      "children": [
        3
      ],
      "name": "RootNode"
    },
    {
      "children": [
        4,
        6,
        8,
        10,
        12,
        14,
        16,
        18,
        20,
        22
      ],
      "name": "Polaroid_Smooth"
    },
    {
      "children": [
        5
      ],
      "matrix": [
        1.0,
        0.0,
        0.0,
        0.0,
        0.0,
        1.0,
        0.0,
        0.0,
        0.0,
        0.0,
        1.0,
        0.0,
        0.0,
        -0.041813235729932785,
        0.03982212767004967,
        1.0
      ],
      "name": "WhitePlastic"
    },
    {
      "mesh": 0,
      "name": "WhitePlastic_WhitePlastic_0"
    },
    {
      "children": [
        7
      ],
      "matrix": [
        1.0,
        0.0,
        0.0,
        0.0,
        0.0,
        1.0,
        0.0,
        0.0,
        0.0,
        0.0,
        1.0,
        0.0,
        0.0,
        -0.041813235729932785,
        0.03982212767004967,
        1.0
      ],
      "name": "Front Viewfinder Glass"
    },
    {
      "mesh": 1,
      "name": "Front Viewfinder Glass_Glass (1)_0"
    },
    {
      "children": [
        9
      ],
      "matrix": [
        1.0,
        0.0,
        0.0,
        0.0,
        0.0,
        1.0,
        0.0,
        0.0,
        0.0,
        0.0,
        1.0,
        0.0,
        0.0,
        -0.041813235729932785,
        0.04783326014876366,
        1.0
      ],
      "name": "Middle Glossy Plastic"
    },
    {
      "mesh": 2,
      "name": "Middle Glossy Plastic_GlossyBlack_0"
    },
    {
      "children": [
        11
      ],
      "matrix": [
        1.0,
        0.0,
        0.0,
        0.0,
        0.0,
        1.0,
        0.0,
        0.0,
        0.0,
        0.0,
        1.0,
        0.0,
        0.0,
        -0.041813235729932785,
        0.04084887355566025,
        1.0
      ],
      "name": "Film Hole"
    },
    {
      "mesh": 3,
      "name": "Film Hole_GlossyBlack_0"
    },
    {
      "children": [
        13
      ],
      "name": "Back Rough"
    },
    {
      "mesh": 4,
      "name": "Back Rough_RoughBlack_0"
    },
    {
      "children": [
        15
      ],
      "name": "EyeGlass"
    },
    {
      "mesh": 5,
      "name": "EyeGlass_Glass_0"
    },
    {
      "children": [
        17
      ],
      "matrix": [
        0.09354962408542633,
        0.0,
        0.0,
        0.0,
        0.0,
        2.0772189320933683e-17,
        0.09354962408542633,
        0.0,
        0.0,
        -0.09354962408542633,
        2.0772189320933683e-17,
        0.0,
        0.0,
        0.11464027315378189,
        0.14167264103889465,
        1.0
      ],
      "name": "Plastic Around the Lens"
    },
    {
      "mesh": 6,
      "name": "Plastic Around the Lens_GlossyBlack_0"
    },
    {
      "children": [
        19
      ],
      "matrix": [
        0.07151030004024506,
        0.0,
        0.0,
        0.0,
        0.0,
        1.5878476320506664e-17,
        0.07151030004024506,
        0.0,
        0.0,
        -0.07151030004024506,
        1.5878476320506664e-17,
        0.0,
        0.0,
        0.11437855660915375,
        0.06952596455812454,
        1.0
      ],
      "name": "Lens"
    },
    {
      "mesh": 7,
      "name": "Lens_Glass_0"
    },
    {
      "children": [
        21
      ],
      "matrix": [
        0.03386910632252693,
        0.0,
        0.0,
        0.0,
        0.0,
        7.520452332549373e-18,
        0.03386910632252693,
        0.0,
        0.0,
        -0.03386910632252693,
        7.520452332549373e-18,
        0.0,
        -0.1603097766637802,
        0.05524800345301628,
        0.08170027285814285,
        1.0
      ],
      "name": "Shutter Button"
    },
    {
      "mesh": 8,
      "name": "Shutter Button_RoughBlack (1)_0"
    },
    {
      "children": [
        23
      ],
      "matrix": [
        0.03386910632252693,
        0.0,
        0.0,
        0.0,
        0.0,
        7.520452332549373e-18,
        0.03386910632252693,
        0.0,
        0.0,
        -0.03386910632252693,
        7.520452332549373e-18,
        0.0,
        0.14128997921943665,
        0.05524800345301628,
        0.12722939252853394,
        1.0
      ],
      "name": "Exposure"
    },
    {
      "mesh": 9,
      "name": "Exposure_GlossyBlack_0"
    }
  ],
  "samplers": [
    {
      "magFilter": 9729,
      "minFilter": 9987,
      "wrapS": 10497,
      "wrapT": 10497
    }
  ],
  "scene": 0,
  "scenes": [
    {
      "name": "Sketchfab_Scene",
      "nodes": [
        0
      ]
    }
  ],
  "textures": [
    {
      "sampler": 0,
      "source": 0
    }
  ]
}
